<?xml version="1.0" standalone="no"?>
<!DOCTYPE svg PUBLIC "-//W3C//DTD SVG 20010904//EN"
 "http://www.w3.org/TR/2001/REC-SVG-20010904/DTD/svg10.dtd">
<svg version="1.0" xmlns="http://www.w3.org/2000/svg"
 width="300.000000pt" height="300.000000pt" viewBox="0 0 300.000000 300.000000"
 preserveAspectRatio="xMidYMid meet">

<g transform="translate(0.000000,300.000000) scale(0.100000,-0.100000)"
fill="#000000" stroke="none">
<path d="M0 1500 l0 -1500 694 0 c653 0 695 1 700 17 2 10 12 50 20 88 29 122
38 158 69 260 32 105 37 117 76 177 16 27 21 42 14 50 -6 7 -20 42 -32 78 -25
77 -36 96 -45 82 -3 -6 -2 -13 4 -17 5 -3 10 -13 10 -22 0 -12 -3 -13 -14 -4
-9 8 -16 8 -20 2 -4 -5 -1 -13 5 -17 9 -5 8 -10 -3 -18 -8 -6 -18 -24 -22 -41
-4 -16 -11 -32 -15 -35 -4 -3 -31 -37 -58 -76 -50 -69 -50 -70 -19 -54 17 9
49 28 71 42 22 14 43 24 47 21 7 -4 -45 -81 -100 -148 -24 -29 -25 -29 -18 -5
4 14 -2 9 -13 -14 -24 -46 -53 -84 -115 -150 -40 -43 -46 -47 -46 -27 0 18 -3
21 -12 13 -10 -8 -12 8 -6 76 3 48 7 95 7 106 1 15 4 16 16 6 21 -17 19 -12
-15 66 l-31 68 31 44 c29 41 30 46 19 80 -31 98 -52 142 -65 142 -8 0 -14 -5
-14 -11 0 -5 -4 -8 -10 -4 -5 3 -14 -12 -20 -34 -12 -46 -108 -174 -133 -179
-29 -6 -22 89 13 182 45 116 91 174 157 196 46 16 56 6 50 -51 -5 -38 -3 -47
8 -43 7 3 16 1 19 -4 11 -18 27 -156 27 -236 l1 -78 24 42 c32 56 60 91 67 83
4 -3 11 7 17 23 6 16 21 37 33 46 13 10 16 18 9 18 -7 0 -11 4 -8 9 3 4 1 36
-5 70 -10 66 -6 101 14 101 17 1 91 69 83 77 -3 4 -17 -4 -31 -17 -14 -13 -25
-19 -25 -14 1 13 26 45 32 39 3 -3 13 4 23 16 13 13 15 23 9 27 -6 4 -11 15
-11 24 0 13 6 16 26 13 21 -4 22 -4 6 3 -17 8 -14 11 23 27 23 10 42 22 42 27
0 12 -6 10 -58 -22 -27 -16 -52 -30 -56 -30 -4 0 -26 -9 -49 -19 -97 -44 -102
-43 -213 58 -55 50 -114 110 -131 133 -36 51 -98 212 -109 283 -12 78 -12 90
0 97 8 5 8 13 -1 27 -11 17 -9 23 15 41 15 13 28 17 30 11 2 -6 10 -11 18 -11
8 0 14 -7 14 -15 0 -17 16 -20 26 -4 3 6 15 8 26 6 14 -4 22 0 25 14 3 10 10
19 17 19 6 0 0 9 -13 19 -13 10 -21 23 -17 29 3 5 -1 13 -10 16 -9 3 -14 13
-11 20 3 8 -1 20 -9 27 -12 10 -13 9 -8 -7 4 -13 3 -15 -3 -6 -5 6 -17 18 -27
25 -17 12 -16 14 13 14 17 0 31 -4 31 -9 0 -4 5 -8 12 -8 22 0 -23 38 -53 44
-23 4 -29 11 -30 33 l-1 28 -8 -25 c-7 -22 -8 -20 -10 15 -1 22 -3 72 -5 110
-5 85 -1 102 28 111 12 4 33 15 46 25 13 10 28 16 33 13 5 -3 15 0 23 6 8 7
37 14 63 16 l49 5 16 -43 c23 -66 39 -164 31 -203 -4 -22 -2 -41 6 -50 7 -8
10 -28 8 -44 -6 -43 8 -29 21 21 13 52 21 63 43 64 15 2 17 -6 13 -56 -4 -54
-2 -57 16 -53 17 5 18 3 9 -21 -12 -32 -6 -33 23 -2 12 13 37 27 55 31 29 6
34 4 39 -14 3 -12 12 -21 20 -21 10 0 12 -6 8 -20 -7 -22 5 -26 22 -9 15 15
47 3 37 -13 -9 -15 55 30 76 53 8 9 25 19 37 23 20 6 22 3 27 -66 3 -40 7 -85
7 -100 1 -16 5 -28 8 -28 4 0 26 30 50 67 37 56 45 64 53 49 5 -9 7 -23 4 -31
-2 -7 2 -16 10 -19 8 -3 14 -16 14 -28 l1 -23 12 23 c10 18 15 20 26 10 12
-11 13 -10 8 5 -4 10 -3 16 2 13 5 -3 8 -17 9 -31 0 -28 27 -65 48 -65 7 0 17
7 22 16 14 25 52 -3 52 -39 0 -42 -23 -79 -81 -131 -70 -63 -105 -81 -134 -68
-27 13 -34 7 -62 -45 -27 -49 -28 -54 -9 -47 7 3 21 23 31 45 10 21 22 39 27
39 5 0 7 -4 3 -9 -3 -5 -1 -12 5 -16 5 -3 10 -1 10 4 0 6 4 11 9 11 4 0 7 -32
5 -71 -2 -40 1 -79 6 -89 5 -9 10 -40 11 -68 3 -51 3 -52 35 -52 35 0 47 -20
64 -103 7 -34 4 -40 -30 -75 -44 -44 -181 -224 -175 -230 2 -2 19 7 37 21 18
14 57 37 85 51 29 15 53 28 53 31 0 5 -41 -10 -71 -25 -42 -23 8 60 100 166
20 22 43 49 51 60 20 26 50 115 50 148 0 25 7 29 40 27 10 0 11 1 2 5 -15 7
-6 24 14 24 8 0 13 -4 10 -8 -3 -5 7 -7 22 -4 54 8 116 -72 114 -148 0 -19 2
-29 5 -23 4 10 10 10 26 -2 12 -8 29 -15 38 -15 10 0 19 -6 22 -12 3 -9 14 -2
30 16 14 17 23 34 20 39 -3 6 -1 7 5 3 7 -4 12 -2 12 3 0 6 7 11 16 11 8 0 12
-5 9 -11 -4 -6 0 -9 10 -7 10 2 20 -3 23 -11 3 -9 0 -11 -8 -6 -8 5 -11 3 -8
-6 3 -8 11 -13 17 -11 6 1 11 -4 11 -12 0 -8 6 -17 13 -19 9 -4 8 -6 -2 -6
-11 -1 -10 -5 4 -21 16 -18 16 -20 1 -35 -9 -9 -16 -22 -16 -29 0 -6 -9 -18
-20 -26 -11 -8 -20 -18 -20 -23 0 -6 5 -5 13 0 22 16 36 9 83 -42 84 -92 80
-100 -55 -120 -250 -38 -575 -144 -751 -245 -31 -18 -35 -19 -38 -4 -5 20 14
88 44 166 l22 57 -27 -12 c-43 -18 -103 -62 -146 -106 l-39 -41 24 -24 c40
-39 271 -177 257 -154 -11 18 -4 27 65 92 117 110 227 154 437 177 130 14 334
6 365 -14 74 -50 121 -115 150 -206 27 -87 63 -249 72 -333 7 -58 7 -58 40
-58 l34 0 0 1500 0 1500 -1500 0 -1500 0 0 -1500z m2126 802 c19 -40 34 -78
33 -85 0 -7 -3 -5 -6 3 -4 8 -17 33 -31 55 -24 37 -25 38 -33 17 -12 -31 -25
-28 -51 13 -13 19 -28 35 -35 35 -15 0 -43 39 -43 60 0 9 6 25 14 35 12 17 16
17 30 6 14 -12 16 -11 10 5 -14 46 82 -78 112 -144z m-376 113 c12 -19 20 -43
18 -52 -3 -13 -11 -5 -31 28 -29 49 -32 59 -18 59 5 0 19 -16 31 -35z m-1071
-181 c-11 -39 -28 -68 -36 -60 -2 2 6 27 18 55 25 60 33 62 18 5z m72 -11
c-12 -20 -14 -14 -5 12 4 9 9 14 11 11 3 -2 0 -13 -6 -23z m709 -118 c0 -8 -4
-15 -10 -15 -5 0 -7 7 -4 15 4 8 8 15 10 15 2 0 4 -7 4 -15z m0 -35 c0 -5 -7
-10 -15 -10 -8 0 -15 5 -15 10 0 6 7 10 15 10 8 0 15 -4 15 -10z m19 -49 c14
-14 21 -16 25 -8 4 7 4 -3 1 -20 -3 -26 -1 -33 13 -34 9 0 12 -3 6 -5 -7 -3
-10 -13 -7 -23 4 -15 -4 -19 -47 -25 -29 -4 -54 -5 -57 -2 -11 11 11 48 33 56
13 5 24 14 24 19 0 6 -6 8 -14 5 -16 -6 -31 29 -21 46 9 15 23 12 44 -9z m152
-4 c30 -23 75 -108 49 -92 -6 3 -7 -1 -4 -9 3 -9 10 -13 15 -10 5 3 9 0 9 -7
0 -8 -15 -10 -52 -5 -63 9 -71 13 -62 35 6 14 9 33 13 84 1 20 10 21 32 4z
m-265 -123 c-4 -9 -9 -15 -11 -12 -3 3 -3 13 1 22 4 9 9 15 11 12 3 -3 3 -13
-1 -22z m-326 -103 c0 -12 -20 -25 -27 -18 -7 7 6 27 18 27 5 0 9 -4 9 -9z
m937 -557 c-3 -3 -12 -4 -19 -1 -8 3 -5 6 6 6 11 1 17 -2 13 -5z m18 -64 c8
-13 -5 -13 -25 0 -13 8 -13 10 2 10 9 0 20 -4 23 -10z m-58 -16 c-3 -3 -12 -4
-19 -1 -8 3 -5 6 6 6 11 1 17 -2 13 -5z m37 -8 c-3 -8 -1 -17 4 -20 6 -3 8
-16 5 -29 -4 -18 -3 -19 7 -7 10 12 11 11 7 -7 -3 -13 -1 -23 4 -23 5 0 11 10
13 23 3 12 7 31 9 42 3 14 5 12 6 -8 1 -29 -12 -62 -34 -84 -10 -9 -14 -1 -19
40 -4 28 -12 55 -18 58 -6 4 -7 12 -4 18 10 16 26 14 20 -3z m36 -18 c0 -19
-2 -20 -10 -8 -13 19 -13 30 0 30 6 0 10 -10 10 -22z m327 -44 c9 -8 24 -13
34 -11 15 4 16 2 7 -19 -13 -28 -30 -32 -26 -6 2 12 -3 17 -17 16 -14 0 -21 6
-21 18 0 22 3 22 23 2z m-887 -47 c0 -4 -6 -2 -14 5 -8 7 -12 17 -9 22 5 8 23
-12 23 -27z m-80 -17 c0 -5 -2 -10 -4 -10 -3 0 -8 5 -11 10 -3 6 -1 10 4 10 6
0 11 -4 11 -10z m1160 -100 c0 -5 -4 -10 -10 -10 -5 0 -10 5 -10 10 0 6 5 10
10 10 6 0 10 -4 10 -10z m-1180 -87 c0 -7 -4 -13 -8 -13 -5 0 -9 6 -10 13 0 6
-3 23 -7 37 l-6 25 15 -25 c8 -14 15 -31 16 -37z m-75 17 c-3 -5 -12 -10 -18
-10 -7 0 -6 4 3 10 19 12 23 12 15 0z m-376 -116 c-16 -57 -4 -137 35 -238 37
-94 36 -118 -4 -131 -38 -12 -130 86 -130 139 1 85 40 207 83 253 26 29 29 26
16 -23z m66 -431 c-24 -67 -30 -83 -49 -126 -9 -21 -16 -48 -17 -60 0 -12 -3
-16 -6 -9 -8 19 -23 14 -23 -8 0 -23 -18 -27 -26 -6 -3 7 -15 12 -28 11 -12
-2 -33 4 -47 11 -23 14 -22 14 15 8 27 -5 37 -3 32 4 -4 6 -13 9 -21 5 -9 -3
-15 1 -15 11 0 10 -6 14 -17 10 -16 -5 -15 -4 1 6 10 7 26 20 36 29 10 9 34
27 55 41 49 34 93 79 108 113 19 43 21 12 2 -40z m-175 -60 c0 -8 5 -11 12 -7
7 4 8 3 4 -4 -9 -15 -36 -16 -36 -1 0 8 -5 8 -15 -1 -12 -10 -15 -10 -15 2 0
20 20 37 36 31 8 -3 14 -12 14 -20z m-25 -43 c-3 -5 -11 -10 -16 -10 -6 0 -7
5 -4 10 3 6 11 10 16 10 6 0 7 -4 4 -10z"/>
<path d="M800 176 c0 -2 7 -6 15 -10 8 -3 15 -1 15 4 0 6 -7 10 -15 10 -8 0
-15 -2 -15 -4z"/>
<path d="M970 2124 c0 -8 5 -12 10 -9 6 4 8 11 5 16 -9 14 -15 11 -15 -7z"/>
<path d="M1080 1831 c0 -6 4 -13 10 -16 6 -3 7 1 4 9 -7 18 -14 21 -14 7z"/>
<path d="M1896 1644 c-9 -24 -8 -25 14 -12 16 11 22 9 34 -7 9 -11 16 -15 16
-8 0 11 -37 43 -51 43 -4 0 -10 -7 -13 -16z"/>
<path d="M1950 1591 c0 -5 6 -14 14 -20 12 -10 13 -8 9 8 -5 21 -23 30 -23 12z"/>
<path d="M1852 1520 c-7 -11 -10 -20 -7 -20 3 0 14 9 25 20 12 12 15 20 7 20
-7 0 -18 -9 -25 -20z"/>
<path d="M1136 1515 c3 -11 7 -26 7 -32 0 -7 4 -13 9 -13 12 0 9 11 -8 40 -10
17 -13 18 -8 5z"/>
<path d="M1632 1222 c-69 -63 -84 -91 -22 -42 22 17 44 29 50 25 6 -4 7 1 3
11 -5 14 -3 16 11 11 11 -4 15 -3 11 4 -4 6 1 19 11 30 36 40 -4 16 -64 -39z"/>
<path d="M1727 1175 c-4 -8 -2 -17 3 -20 6 -4 10 3 10 14 0 25 -6 27 -13 6z"/>
<path d="M1710 1118 c0 -19 2 -20 10 -8 13 19 13 30 0 30 -5 0 -10 -10 -10
-22z"/>
<path d="M1870 1110 c0 -5 5 -10 11 -10 5 0 7 5 4 10 -3 6 -8 10 -11 10 -2 0
-4 -4 -4 -10z"/>
<path d="M1678 1030 c-25 -57 -26 -69 -2 -52 9 6 36 103 30 109 -1 1 -14 -25
-28 -57z"/>
<path d="M1510 1030 c-9 -6 -10 -10 -3 -10 6 0 15 5 18 10 8 12 4 12 -15 0z"/>
<path d="M1965 845 c-25 -12 -26 -14 -5 -9 28 7 60 23 45 23 -5 0 -23 -6 -40
-14z"/>
<path d="M1490 806 c0 -8 -2 -20 -3 -28 -2 -7 -2 -10 0 -5 3 4 8 5 12 2 5 -2
6 7 3 20 -5 27 -12 33 -12 11z"/>
<path d="M1321 564 c0 -11 3 -14 6 -6 3 7 2 16 -1 19 -3 4 -6 -2 -5 -13z"/>
<path d="M1210 510 c0 -5 5 -10 10 -10 6 0 10 5 10 10 0 6 -4 10 -10 10 -5 0
-10 -4 -10 -10z"/>
<path d="M1311 494 c0 -11 3 -14 6 -6 3 7 2 16 -1 19 -3 4 -6 -2 -5 -13z"/>
<path d="M1223 420 c-6 -39 -8 -83 -4 -98 7 -25 10 -22 47 53 51 105 51 104
21 76 l-27 -24 -13 32 -13 31 -11 -70z"/>
<path d="M2556 393 c-6 -14 -5 -15 5 -6 7 7 10 15 7 18 -3 3 -9 -2 -12 -12z"/>
<path d="M2519 353 c-13 -16 -12 -17 4 -4 16 13 21 21 13 21 -2 0 -10 -8 -17
-17z"/>
<path d="M2486 314 c-5 -14 -4 -15 9 -4 17 14 19 20 6 20 -5 0 -12 -7 -15 -16z"/>
<path d="M1868 310 c6 -8 12 -26 12 -41 0 -26 -45 -140 -89 -227 l-21 -42 64
0 64 0 16 47 c22 64 20 90 -9 124 -20 25 -23 36 -18 77 4 39 2 50 -13 62 -16
12 -17 12 -6 0z"/>
<path d="M2113 235 c-23 -76 -48 -164 -57 -207 l-6 -28 74 0 75 0 -24 53 c-14
28 -25 72 -26 97 0 25 -4 70 -8 100 l-6 55 -22 -70z"/>
<path d="M2460 280 c-9 -6 -10 -10 -3 -10 6 0 15 5 18 10 8 12 4 12 -15 0z"/>
<path d="M2412 207 c-24 -40 -92 -190 -92 -204 0 -2 4 -3 8 -3 5 0 21 33 37
73 15 39 41 96 57 125 39 69 31 77 -10 9z"/>
</g>
</svg>
